<svg width="2200" height="1485" viewBox="0 0 2200 1485" fill="none" xmlns="http://www.w3.org/2000/svg">
<rect width="2200" height="1485" fill="#1E1E1E"/>
<rect id="Rectangle 6" x="278" y="160" width="1920" height="1206" fill="white"/>
<rect id="Rectangle 13" x="278" y="160" width="1922" height="120" fill="#717DE4"/>
<rect id="Rectangle 2" x="335" y="189" width="287" height="63" rx="14" fill="#D9D9D9"/>
<rect id="Rectangle 5" x="1849" y="185" width="293" height="71" rx="14" fill="#253198"/>
<rect id="Rectangle 11" x="461" y="729" width="271" height="54" rx="27" fill="#FF6583"/>
<rect id="Rectangle 3" x="1302" y="197" width="224" height="47" rx="14" fill="#D9D9D9"/>
<rect id="Rectangle 12" x="1559" y="197" width="224" height="47" rx="14" fill="#D9D9D9"/>
<g id="Rectangle 7">
<rect x="461" y="557" width="575" height="24" rx="12" fill="#B1B1B1"/>
<rect x="461" y="557" width="575" height="24" rx="12" fill="#B1B1B1"/>
<rect x="461" y="557" width="575" height="24" rx="12" fill="#B1B1B1"/>
<rect x="461" y="557" width="575" height="24" rx="12" fill="#B1B1B1"/>
</g>
<g id="Rectangle 10">
<rect x="461" y="514" width="575" height="24" rx="12" fill="#B1B1B1"/>
<rect x="461" y="514" width="575" height="24" rx="12" fill="#B1B1B1"/>
<rect x="461" y="514" width="575" height="24" rx="12" fill="#B1B1B1"/>
<rect x="461" y="514" width="575" height="24" rx="12" fill="#B1B1B1"/>
</g>
<rect id="Rectangle 14" x="1397" y="946" width="502" height="24" rx="12" fill="#6C63FF"/>
<g id="Rectangle 9">
<rect x="461" y="643" width="325" height="24" rx="12" fill="#B1B1B1"/>
<rect x="461" y="643" width="325" height="24" rx="12" fill="#B1B1B1"/>
<rect x="461" y="643" width="325" height="24" rx="12" fill="#B1B1B1"/>
<rect x="461" y="643" width="325" height="24" rx="12" fill="#B1B1B1"/>
</g>
<path id="Rectangle 15" d="M390 1231C390 1217.75 400.745 1207 414 1207H899C912.255 1207 923 1217.75 923 1231V1365H390V1231Z" fill="#D9D9D9"/>
<path id="Rectangle 16" d="M984 1172C984 1158.75 994.745 1148 1008 1148H1493C1506.25 1148 1517 1158.75 1517 1172V1365H984V1172Z" fill="#D9D9D9"/>
<path id="Rectangle 17" d="M1578 1231C1578 1217.75 1588.75 1207 1602 1207H2087C2100.25 1207 2111 1217.75 2111 1231V1365H1578V1231Z" fill="#D9D9D9"/>
<g id="Rectangle 8">
<rect x="461" y="600" width="575" height="24" rx="12" fill="#B1B1B1"/>
<rect x="461" y="600" width="575" height="24" rx="12" fill="#B1B1B1"/>
<rect x="461" y="600" width="575" height="24" rx="12" fill="#B1B1B1"/>
<rect x="461" y="600" width="575" height="24" rx="12" fill="#B1B1B1"/>
</g>
<rect id="Rectangle 18" x="1053" y="1207" width="395" height="45" rx="22.5" fill="#B1B1B1"/>
<rect id="Rectangle 19" x="461" y="1257" width="395" height="45" rx="22.5" fill="#B1B1B1"/>
<g id="Rectangle 21">
<rect x="1054" y="1286" width="283" height="24" rx="12" fill="#B1B1B1"/>
<rect x="1054" y="1286" width="283" height="24" rx="12" fill="#B1B1B1"/>
<rect x="1054" y="1286" width="283" height="24" rx="12" fill="#B1B1B1"/>
<rect x="1054" y="1286" width="283" height="24" rx="12" fill="#B1B1B1"/>
</g>
<g id="Rectangle 23">
<rect x="461" y="1330" width="283" height="24" rx="12" fill="#B1B1B1"/>
<rect x="461" y="1330" width="283" height="24" rx="12" fill="#B1B1B1"/>
<rect x="461" y="1330" width="283" height="24" rx="12" fill="#B1B1B1"/>
<rect x="461" y="1330" width="283" height="24" rx="12" fill="#B1B1B1"/>
</g>
<g id="Rectangle 22">
<rect x="1651" y="1330" width="283" height="24" rx="12" fill="#B1B1B1"/>
<rect x="1651" y="1330" width="283" height="24" rx="12" fill="#B1B1B1"/>
<rect x="1651" y="1330" width="283" height="24" rx="12" fill="#B1B1B1"/>
<rect x="1651" y="1330" width="283" height="24" rx="12" fill="#B1B1B1"/>
</g>
<rect id="Rectangle 20" x="1651" y="1257" width="395" height="45" rx="22.5" fill="#B1B1B1"/>
<g id="undraw_website_setup_re_d4y9 1">
<path id="Vector" d="M2010.45 926.474H1257.84C1252.81 926.468 1247.99 924.469 1244.43 920.914C1240.87 917.36 1238.87 912.54 1238.87 907.513V465.103C1238.87 460.076 1240.87 455.256 1244.43 451.702C1247.99 448.147 1252.81 446.148 1257.84 446.142H2010.45C2015.48 446.148 2020.3 448.147 2023.86 451.702C2027.42 455.256 2029.42 460.076 2029.42 465.103V907.513C2029.42 912.54 2027.42 917.36 2023.86 920.914C2020.3 924.469 2015.48 926.468 2010.45 926.474Z" fill="white"/>
<path id="Vector_2" d="M2010.45 932.926H1257.84C1251.1 932.918 1244.63 930.238 1239.87 925.474C1235.1 920.71 1232.42 914.25 1232.41 907.513V465.104C1232.42 458.366 1235.1 451.907 1239.87 447.142C1244.63 442.378 1251.1 439.698 1257.84 439.691H2010.45C2017.19 439.698 2023.66 442.378 2028.42 447.142C2033.19 451.907 2035.87 458.366 2035.88 465.104V907.513C2035.87 914.25 2033.19 920.71 2028.42 925.474C2023.66 930.238 2017.19 932.918 2010.45 932.926ZM1257.84 452.595C1254.52 452.598 1251.34 453.918 1248.99 456.263C1246.65 458.608 1245.33 461.787 1245.32 465.104V907.513C1245.33 910.829 1246.65 914.009 1248.99 916.354C1251.34 918.699 1254.52 920.018 1257.84 920.022H2010.45C2013.77 920.018 2016.95 918.699 2019.3 916.354C2021.64 914.009 2022.96 910.829 2022.97 907.513V465.104C2022.96 461.787 2021.64 458.608 2019.3 456.263C2016.95 453.918 2013.77 452.598 2010.45 452.595H1257.84Z" fill="#3F3D56"/>
<path id="Vector_3" d="M1633.13 810.384C1669.2 810.384 1698.44 781.165 1698.44 745.121C1698.44 709.078 1669.2 679.858 1633.13 679.858C1597.06 679.858 1567.82 709.078 1567.82 745.121C1567.82 781.165 1597.06 810.384 1633.13 810.384Z" fill="#FF6583"/>
<path id="Vector_4" d="M1759.12 682.335C1755.27 678.26 1750.65 674.994 1745.53 672.729C1740.4 670.464 1734.87 669.246 1729.27 669.146C1723.67 669.046 1718.1 670.066 1712.9 672.146C1707.69 674.227 1702.96 677.326 1698.97 681.261L1487.17 892.922C1460.03 920.162 1431.71 878.499 1413.61 861.699C1370.09 818.684 1323.08 899.34 1293.83 922.437H1974.46V913.778L1759.12 682.335Z" fill="#6C63FF"/>
<g id="Rectangle 22_2">
<rect x="1053" y="1328" width="283" height="24" rx="12" fill="#B1B1B1"/>
<rect x="1053" y="1328" width="283" height="24" rx="12" fill="#B1B1B1"/>
<rect x="1053" y="1328" width="283" height="24" rx="12" fill="#B1B1B1"/>
<rect x="1053" y="1328" width="283" height="24" rx="12" fill="#B1B1B1"/>
</g>
</g>
</svg>
